<svg width="13" height="13" viewBox="0 0 13 13" fill="none" xmlns="http://www.w3.org/2000/svg">
<path fill-rule="evenodd" clip-rule="evenodd" d="M2.65593 7.07441C3.58859 6.67423 4.63877 6.96846 5.53944 7.88085L5.56919 7.91439C6.35905 8.93045 6.58143 9.85122 6.23188 10.65C5.35945 12.6425 1.21677 12.9314 0.747466 12.9573L0 13L0.419474 12.3628C0.42617 12.3521 1.1305 11.2614 1.1305 9.39845C1.1305 8.41441 1.75748 7.45857 2.65593 7.07441ZM11.7047 0.000359816C12.0766 -0.00726625 12.3816 0.106306 12.6196 0.34336C12.8948 0.625392 13.013 0.953147 12.9989 1.31902C12.9245 3.13314 9.63713 6.45646 7.1307 8.72793C6.96634 8.27821 6.69933 7.78275 6.28208 7.24919L6.22259 7.18059C5.68039 6.62417 5.07721 6.24305 4.44576 6.06012C6.46802 3.71243 9.89 0.0758225 11.7047 0.000359816Z" fill="#FFBE03"/>
</svg>
